<svg width="792" height="698" viewBox="0 0 792 698" fill="none" xmlns="http://www.w3.org/2000/svg">
<mask id="mask0_51_4" style="mask-type:luminance" maskUnits="userSpaceOnUse" x="0" y="0" width="792" height="698">
<path d="M161.996 121.65L195.554 0L45.7079 88.9603L0.490057 251.385V253.3L503.221 392.752L286.608 448.554L85.0404 392.44L0 697.885L732.685 509.129L791.55 297.7L161.996 121.65Z" fill="white"/>
</mask>
<g mask="url(#mask0_51_4)">
<path d="M-1851.87 -189.853L-1677.48 -103.894L-1502.14 -18.6862C-1472.95 -4.45435 -1443.57 9.62714 -1414.21 23.7198L-1326.15 66.0145L-1238.08 108.309L-1149.7 150.353L-972.822 234.358L-617.688 401.276L-599.977 409.6L-582.733 400.335L-237.042 214.586L-64.9454 121.182L21.0693 74.4556L106.728 27.4838C163.772 -3.87529 221.072 -35.0562 277.911 -66.5601L448.415 -161.083L617.905 -256.313L702.629 -303.942L786.728 -352.01L784.746 -353.402L-600.617 385.385L-2023.71 -277.816L-2025.62 -276.319L-1939.04 -232.855L-1851.87 -189.853Z" fill="#F1F1F1"/>
<path d="M-1850.97 -163.41L-1676.44 -77.557L-1501 7.5781C-1471.8 21.7988 -1442.41 35.8692 -1413.04 49.9508L-1324.93 92.2176L-1236.84 134.484L-1148.43 176.512L-971.509 260.483L-616.341 427.379L-599.281 435.397L-582.666 426.471L-236.948 240.745L-64.8065 147.374L21.2306 100.664L106.922 53.7147C163.995 22.3779 221.306 -8.79744 278.178 -40.2735L448.782 -134.724L618.412 -229.859L703.208 -277.438L787.402 -325.445L785.492 -326.787L-599.904 412.061L-2023.03 -251.196L-2024.87 -249.754L-1938.21 -206.356L-1850.97 -163.41Z" fill="#F1F1F1"/>
<path d="M-1850.06 -136.973L-1675.4 -51.2202L-1499.86 33.8369C-1441.37 62.2059 -1382.43 90.2131 -1323.72 118.421L-1235.59 160.66L-1147.16 202.67L-970.205 286.608L-615.004 453.476L-598.59 461.188L-582.61 452.602L-236.858 266.903L-64.6779 173.561L21.3815 126.873L107.112 79.9457C164.212 48.6256 221.54 17.4669 278.445 -13.9868L449.156 -108.365L618.925 -203.4L703.787 -250.934L788.07 -298.875L786.233 -300.166L-599.197 438.749L-2022.36 -224.581L-2024.11 -223.194L-1937.36 -179.869L-1850.06 -136.979V-136.973Z" fill="#F1F1F1"/>
<path d="M-1849.15 -110.531L-1674.36 -24.8891L-1498.72 60.0901C-1440.2 88.4313 -1381.24 116.427 -1322.51 144.618L-1234.34 186.835L-1145.89 228.823L-968.886 312.728L-613.657 479.574L-597.889 486.979L-582.538 478.738L-236.752 293.056L-64.528 199.747L21.5591 153.07L107.323 106.171C164.446 74.8676 221.796 43.7201 278.735 12.2886L449.545 -82.017L619.453 -176.957L704.388 -224.441L788.766 -272.315L787 -273.557L-598.462 465.42L-2021.68 -197.96L-2023.37 -196.629L-1936.52 -153.371L-1849.15 -110.531Z" fill="#F1F1F1"/>
<path d="M-1848.24 -84.0882L-1673.32 1.45325L-1497.59 86.3545C-1439.03 114.668 -1380.05 142.653 -1321.3 170.821L-1233.1 213.005L-1144.62 254.976L-967.583 338.848L-612.315 505.665L-597.193 512.765L-582.471 504.864L-236.652 319.209L-64.3829 225.934L21.7264 179.274L107.524 132.402C164.674 101.115 222.041 69.9844 279.013 38.5752L449.924 -55.658L619.971 -150.498L704.978 -197.932L789.451 -245.739L787.758 -246.931L-597.738 492.113L-2020.99 -171.339L-2022.62 -170.059L-1935.68 -126.873L-1848.24 -84.0827V-84.0882Z" fill="#F1F1F1"/>
<path d="M-1847.34 -57.6457L-1672.28 27.79L-1496.45 112.613C-1437.85 140.904 -1378.86 168.878 -1320.09 197.024L-1231.85 239.186L-1143.35 281.141L-966.269 364.978L-610.968 531.768L-596.496 538.561L-582.404 531L-236.557 345.368L-64.2437 252.12L21.8881 205.477L107.725 158.627C164.903 127.363 222.281 96.2377 279.292 64.8564L450.303 -29.3045L620.489 -124.044L705.563 -171.428L790.125 -219.174L788.504 -220.315L-597.031 518.789L-2020.31 -144.724L-2021.87 -143.499L-1934.84 -100.38L-1847.34 -57.6457Z" fill="#F1F1F1"/>
<path d="M-1846.43 -31.2087L-1671.25 54.1268L-1318.74 223.111L-1230.59 265.344L-1142.08 307.293L-964.966 391.103L-609.632 557.866L-595.806 564.358L-582.343 557.131L-236.463 371.521L-64.1049 278.306L22.0323 231.674L107.774 184.753L450.675 -2.95103L621.001 -97.5963L706.147 -144.93L790.804 -192.609L789.256 -193.7L-596.313 545.466L-2019.63 -118.103L-2021.11 -116.934L-1934.01 -73.8876L-1846.43 -31.2087Z" fill="#F1F1F1"/>
<path d="M-1845.53 -4.7662L-1670.21 80.4635L-1317.53 249.319L-1229.35 291.519L-1140.82 333.452L-963.652 417.229L-608.29 583.968L-595.11 590.149L-582.281 583.267L-236.368 397.679L-63.9653 304.493L22.1997 257.872L107.981 210.983L451.054 23.4024L621.519 -71.1482L706.732 -118.432L791.483 -166.044L790.007 -167.08L-595.594 572.148L-2018.95 -91.4826L-2020.37 -90.369L-1933.17 -47.395L-1845.53 -4.7662Z" fill="#F1F1F1"/>
<path d="M-1844.62 21.6763L-1669.16 106.8L-1316.32 275.522L-1228.11 317.695L-1139.55 359.605L-962.344 443.348L-606.948 610.066L-594.42 615.94L-582.215 609.398L-236.274 423.832L-63.8264 330.679L22.361 284.075L108.186 237.22L451.433 49.7558L622.031 -44.6945L707.317 -91.9336L792.162 -139.479L790.759 -140.464L-594.876 598.824L-2018.27 -64.8674L-2019.62 -63.8095L-1932.33 -20.9023L-1844.62 21.6763Z" fill="#F1F1F1"/>
<path d="M-1843.71 48.1133L-1668.13 133.137L-1315.12 301.731L-1226.86 343.87L-1138.29 385.764L-961.035 469.473L-605.606 636.163L-593.724 641.737L-582.153 635.534L-236.173 449.985L-63.6871 356.86L22.5225 310.278L108.387 263.451L451.811 76.1093L622.549 -18.2464L707.901 -65.4298L792.842 -112.914L791.511 -113.849L-594.158 625.506L-2017.59 -38.2467L-2018.86 -37.2445L-1931.49 5.59031L-1843.71 48.1133Z" fill="#F1F1F1"/>
<path d="M-1842.81 74.5558L-1667.09 159.474L-1313.92 327.94L-1225.62 370.045L-1136.91 411.833L-959.359 495.309L-604.258 662.255L-593.028 667.539L-582.092 661.659L-236.468 475.865L-63.6702 382.963L22.6898 336.481L108.599 289.682L452.185 102.463L623.067 8.20728L708.492 -38.9316L793.521 -86.3489L792.263 -87.2286L-593.44 652.182L-2016.9 -11.6316L-2018.12 -10.6794L-1930.65 32.0885L-1842.81 74.5558Z" fill="#F1F1F1"/>
<path d="M-1841.9 100.998L-1666.05 185.81L-1312.72 354.148L-1224.37 396.22L-1135.65 437.997L-958.073 521.451L-602.917 688.358L-592.332 693.33L-582.031 687.795L-236.352 502.041L-63.5256 409.155L22.851 362.684L108.799 315.913L452.563 128.816L623.579 34.6554L709.076 -12.4334L794.2 -59.7838L793.014 -60.6135L-592.722 678.864L-2016.23 14.9891L-2017.36 15.8856L-1929.81 58.5812L-1841.9 100.998Z" fill="#F1F1F1"/>
<path d="M-1840.99 127.441L-1665.01 212.147L-1311.51 380.352L-1223.13 422.396L-1134.38 464.161L-956.787 547.593L-601.575 714.455L-591.641 719.121L-581.964 713.926L-236.235 528.21L-63.3754 435.347L23.0125 388.887L109.005 342.149L452.942 155.164L624.097 61.1091L709.661 14.0704L794.879 -33.2188L793.766 -33.9983L-592.003 705.541L-2015.55 41.6043L-2016.61 42.445L-1928.97 85.0738L-1840.99 127.441Z" fill="#F1F1F1"/>
<path d="M-2014.86 68.225L-2015.86 69.0101L-1928.13 111.566L-1840.09 153.878L-1663.98 238.484L-1310.31 406.56L-1221.89 448.571L-1133.13 490.32L-955.495 573.729L-600.233 740.552L-591.686 744.567L-590.222 744.528L-581.903 740.062L-236.118 554.38L-63.2307 461.539L23.1796 415.09L109.211 368.38L453.32 181.523L624.615 87.5572L710.251 40.5686L795.559 -6.6482L794.517 -7.38318L-591.285 732.223L-2014.86 68.225Z" fill="#F1F1F1"/>
<path d="M-538.907 743.147L-235.995 580.555L-63.0859 487.725L23.3411 441.293L109.417 394.611L453.699 207.877L625.133 114.011L710.836 67.0668L796.238 19.9168L795.269 19.2319L-562.231 743.776L-538.907 743.147Z" fill="#F1F1F1"/>
<path d="M-487.547 741.766L-235.878 606.725L-62.9355 513.917L23.5025 467.497L109.623 420.848L454.072 234.23L625.645 140.459L711.421 93.5706L796.917 46.4819L796.021 45.8527L-508.839 742.34L-487.547 741.766Z" fill="#F1F1F1"/>
<path d="M-436.143 740.38L-235.756 632.895L-62.7906 540.109L23.6696 493.7L109.829 447.079L454.451 260.583L626.163 166.913L712.011 120.069L797.597 73.0469L796.773 72.4678L-455.448 740.898L-436.143 740.38Z" fill="#F1F1F1"/>
<path d="M-384.706 738.999L-235.639 659.07L-62.6459 566.301L23.8311 519.903L110.035 473.31L454.824 286.931L798.276 99.6119L797.524 99.0829L-402.072 739.461L-384.706 738.999Z" fill="#F1F1F1"/>
<path d="M-333.229 737.612L-235.522 685.24L-62.4956 592.493L23.9925 546.106L110.241 499.546L455.202 313.285L798.955 126.177L798.276 125.704L-348.703 738.03L-333.229 737.612Z" fill="#F1F1F1"/>
<path d="M-295.339 736.594L-281.714 736.226L-235.399 711.409L-62.3509 618.685L24.1595 572.309L110.447 525.777L455.581 339.638L799.634 152.742L799.028 152.319L-295.339 736.594Z" fill="#F1F1F1"/>
<path d="M-241.975 735.157L-230.154 734.84L-62.2005 644.877L24.321 598.512L110.653 552.008L455.959 365.992L800.314 179.307L799.779 178.934L-241.975 735.157Z" fill="#F1F1F1"/>
<path d="M-188.628 733.72L-179.43 733.47L110.447 577.955L456.333 392.345L800.993 205.872L800.531 205.549L-188.628 733.72Z" fill="#F1F1F1"/>
<path d="M-135.281 732.284L-127.753 732.083L110.72 604.231L456.711 418.699L801.672 232.437L801.283 232.164L-135.281 732.284Z" fill="#F1F1F1"/>
<path d="M-81.9447 730.847L-75.9981 730.686L110.987 630.512L457.09 445.052L802.352 259.008L802.034 258.785L-81.9447 730.847Z" fill="#F1F1F1"/>
<path d="M-28.6141 729.411L-24.1709 729.294L111.26 656.787L457.468 471.405L803.031 285.573L802.786 285.4L-28.6141 729.411Z" fill="#F1F1F1"/>
<path d="M24.7108 727.98L27.2164 727.913L803.71 312.138L803.538 312.015L24.7108 727.98Z" fill="#F1F1F1"/>
<path d="M780.965 350.819L804.412 338.257L804.245 338.14L780.776 350.685L780.965 350.819Z" fill="#F1F1F1"/>
<path d="M756.878 363.725L780.319 351.164L780.13 351.03L756.661 363.57L756.878 363.725Z" fill="#F1F1F1"/>
<path d="M732.785 376.632L756.232 364.071L756.009 363.915L732.54 376.46L732.785 376.632Z" fill="#F1F1F1"/>
<path d="M731.894 376.805L708.425 389.349L708.692 389.539L732.139 376.977L731.894 376.805Z" fill="#F1F1F1"/>
<path d="M707.773 389.695L684.31 402.234L684.605 402.445L708.046 389.884L707.773 389.695Z" fill="#F1F1F1"/>
<path d="M683.658 402.579L660.189 415.124L660.512 415.352L683.959 402.791L683.658 402.579Z" fill="#F1F1F1"/>
<path d="M636.425 428.259L659.866 415.697L659.543 415.469L636.074 428.008L636.425 428.259Z" fill="#F1F1F1"/>
<path d="M612.332 441.16L635.779 428.604L635.428 428.359L611.959 440.898L612.332 441.16Z" fill="#F1F1F1"/>
<path d="M588.239 454.067L611.686 441.505L611.307 441.243L587.838 453.788L588.239 454.067Z" fill="#F1F1F1"/>
<path d="M564.152 466.973L587.593 454.417L587.192 454.133L563.723 466.673L564.152 466.973Z" fill="#F1F1F1"/>
<path d="M540.059 479.88L563.5 467.324L563.077 467.023L539.602 479.563L540.059 479.88Z" fill="#F1F1F1"/>
<path d="M515.966 492.787L539.413 480.225L538.956 479.908L515.487 492.452L515.966 492.787Z" fill="#F1F1F1"/>
<path d="M491.879 505.693L515.32 493.132L514.841 492.798L491.372 505.337L491.879 505.693Z" fill="#F1F1F1"/>
<path d="M467.786 518.6L491.233 506.038L490.726 505.682L467.257 518.227L467.786 518.6Z" fill="#F1F1F1"/>
<path d="M443.693 531.507L467.14 518.945L466.606 518.572L443.136 531.111L443.693 531.507Z" fill="#F1F1F1"/>
<path d="M419.606 544.413L443.047 531.852L442.491 531.462L419.021 544.001L419.606 544.413Z" fill="#F1F1F1"/>
<path d="M395.513 557.32L418.96 544.759L418.375 544.346L394.901 556.891L395.513 557.32Z" fill="#F1F1F1"/>
<path d="M371.42 570.227L394.867 557.665L394.255 557.236L370.786 569.776L371.42 570.227Z" fill="#F1F1F1"/>
<path d="M347.333 583.128L370.78 570.572L370.14 570.126L346.671 582.666L347.333 583.128Z" fill="#F1F1F1"/>
<path d="M323.24 596.04L346.687 583.478L346.024 583.011L322.555 595.556L323.24 596.04Z" fill="#F1F1F1"/>
<path d="M299.153 608.947L322.594 596.385L321.904 595.901L298.435 608.44L299.153 608.947Z" fill="#F1F1F1"/>
<path d="M275.06 621.848L298.507 609.292L297.789 608.785L274.32 621.33L275.06 621.848Z" fill="#F1F1F1"/>
<path d="M250.967 634.754L274.414 622.193L273.674 621.675L250.199 634.214L250.967 634.754Z" fill="#F1F1F1"/>
<path d="M226.88 647.661L250.321 635.105L249.553 634.565L226.084 647.104L226.88 647.661Z" fill="#F1F1F1"/>
<path d="M202.787 660.568L226.234 648.006L225.438 647.45L201.969 659.994L202.787 660.568Z" fill="#F1F1F1"/>
<path d="M178.694 673.474L202.141 660.913L201.323 660.339L177.854 672.879L178.694 673.474Z" fill="#F1F1F1"/>
<path d="M154.607 686.381L178.049 673.82L177.202 673.224L153.733 685.769L154.607 686.381Z" fill="#F1F1F1"/>
<path d="M130.514 699.288L153.961 686.726L153.087 686.114L129.618 698.659L130.514 699.288Z" fill="#F1F1F1"/>
<path d="M782.318 376.599L805.114 364.382L804.952 364.266L782.134 376.465L782.318 376.599Z" fill="#F1F1F1"/>
<path d="M758.231 389.511L781.026 377.295L780.837 377.161L758.019 389.361L758.231 389.511Z" fill="#F1F1F1"/>
<path d="M734.149 402.418L756.939 390.201L756.727 390.051L733.91 402.251L734.149 402.418Z" fill="#F1F1F1"/>
<path d="M710.062 415.33L732.857 403.108L732.618 402.941L709.8 415.146L710.062 415.33Z" fill="#F1F1F1"/>
<path d="M685.974 428.237L708.77 416.02L708.508 415.837L685.685 428.036L685.974 428.237Z" fill="#F1F1F1"/>
<path d="M661.893 441.149L684.683 428.933L684.393 428.727L661.576 440.926L661.893 441.149Z" fill="#F1F1F1"/>
<path d="M637.806 454.055L660.601 441.839L660.284 441.622L637.466 453.822L637.806 454.055Z" fill="#F1F1F1"/>
<path d="M613.724 466.968L636.514 454.751L636.174 454.512L613.356 466.712L613.724 466.968Z" fill="#F1F1F1"/>
<path d="M612.065 467.402L589.247 479.602L589.637 479.88L612.427 467.664L612.065 467.402Z" fill="#F1F1F1"/>
<path d="M587.95 480.298L565.132 492.497L565.55 492.787L588.345 480.57L587.95 480.298Z" fill="#F1F1F1"/>
<path d="M563.84 493.187L541.022 505.387L541.462 505.699L564.257 493.483L563.84 493.187Z" fill="#F1F1F1"/>
<path d="M539.73 506.077L516.913 518.283L517.38 518.611L540.17 506.389L539.73 506.077Z" fill="#F1F1F1"/>
<path d="M515.615 518.973L492.798 531.173L493.293 531.518L516.089 519.301L515.615 518.973Z" fill="#F1F1F1"/>
<path d="M469.206 544.43L492.001 532.208L491.506 531.863L468.688 544.063L469.206 544.43Z" fill="#F1F1F1"/>
<path d="M445.124 557.337L467.914 545.12L467.396 544.753L444.578 556.952L445.124 557.337Z" fill="#F1F1F1"/>
<path d="M421.037 570.249L443.833 558.033L443.287 557.648L420.469 569.848L421.037 570.249Z" fill="#F1F1F1"/>
<path d="M396.95 583.161L419.745 570.939L419.172 570.538L396.354 582.744L396.95 583.161Z" fill="#F1F1F1"/>
<path d="M372.868 596.068L395.658 583.852L395.062 583.428L372.245 595.634L372.868 596.068Z" fill="#F1F1F1"/>
<path d="M348.781 608.98L371.576 596.764L370.953 596.324L348.135 608.523L348.781 608.98Z" fill="#F1F1F1"/>
<path d="M324.693 621.887L347.489 609.67L346.837 609.214L324.02 621.413L324.693 621.887Z" fill="#F1F1F1"/>
<path d="M300.612 634.799L323.402 622.577L322.728 622.109L299.91 634.309L300.612 634.799Z" fill="#F1F1F1"/>
<path d="M276.525 647.706L299.32 635.489L298.618 634.999L275.801 647.199L276.525 647.706Z" fill="#F1F1F1"/>
<path d="M252.437 660.618L275.233 648.402L274.509 647.889L251.691 660.094L252.437 660.618Z" fill="#F1F1F1"/>
<path d="M228.356 673.53L251.146 661.308L250.399 660.785L227.576 672.984L228.356 673.53Z" fill="#F1F1F1"/>
<path d="M204.268 686.437L227.058 674.221L226.284 673.675L203.467 685.874L204.268 686.437Z" fill="#F1F1F1"/>
<path d="M180.181 699.349L202.977 687.133L202.175 686.57L179.357 698.77L180.181 699.349Z" fill="#F1F1F1"/>
<path d="M783.671 402.379L805.815 390.508L805.654 390.391L783.487 402.251L783.671 402.379Z" fill="#F1F1F1"/>
<path d="M759.589 415.291L781.733 403.42L781.55 403.286L759.383 415.146L759.589 415.291Z" fill="#F1F1F1"/>
<path d="M735.513 428.203L757.652 416.332L757.445 416.187L735.279 428.042L735.513 428.203Z" fill="#F1F1F1"/>
<path d="M711.432 441.121L733.576 429.244L733.341 429.083L711.175 440.937L711.432 441.121Z" fill="#F1F1F1"/>
<path d="M687.35 454.033L709.494 442.157L709.238 441.978L687.071 453.838L687.35 454.033Z" fill="#F1F1F1"/>
<path d="M685.128 454.874L662.962 466.734L663.268 466.945L685.412 455.074L685.128 454.874Z" fill="#F1F1F1"/>
<path d="M661.024 467.769L638.858 479.629L639.192 479.863L661.331 467.987L661.024 467.769Z" fill="#F1F1F1"/>
<path d="M636.92 480.665L614.754 492.525L615.11 492.775L637.254 480.899L636.92 480.665Z" fill="#F1F1F1"/>
<path d="M612.816 493.561L590.65 505.42L591.029 505.688L613.173 493.811L612.816 493.561Z" fill="#F1F1F1"/>
<path d="M588.707 506.456L566.54 518.316L566.953 518.606L589.091 506.729L588.707 506.456Z" fill="#F1F1F1"/>
<path d="M542.871 531.518L565.015 519.641L564.603 519.357L542.436 531.212L542.871 531.518Z" fill="#F1F1F1"/>
<path d="M518.789 544.43L540.933 532.553L540.499 532.253L518.332 544.113L518.789 544.43Z" fill="#F1F1F1"/>
<path d="M494.707 557.342L516.851 545.471L516.395 545.148L494.228 557.008L494.707 557.342Z" fill="#F1F1F1"/>
<path d="M470.631 570.254L492.77 558.383L492.291 558.044L470.125 569.904L470.631 570.254Z" fill="#F1F1F1"/>
<path d="M446.55 583.172L468.694 571.296L468.181 570.939L446.021 582.799L446.55 583.172Z" fill="#F1F1F1"/>
<path d="M422.468 596.084L444.612 584.208L444.077 583.835L421.911 595.695L422.468 596.084Z" fill="#F1F1F1"/>
<path d="M398.386 608.997L420.53 597.126L419.973 596.73L397.807 608.59L398.386 608.997Z" fill="#F1F1F1"/>
<path d="M374.31 621.909L396.449 610.038L395.87 609.626L373.703 621.486L374.31 621.909Z" fill="#F1F1F1"/>
<path d="M350.229 634.821L372.373 622.95L371.766 622.527L349.599 634.381L350.229 634.821Z" fill="#F1F1F1"/>
<path d="M326.147 647.739L348.291 635.862L347.656 635.417L325.495 647.277L326.147 647.739Z" fill="#F1F1F1"/>
<path d="M302.065 660.651L324.209 648.78L323.552 648.318L301.386 660.172L302.065 660.651Z" fill="#F1F1F1"/>
<path d="M277.989 673.564L300.128 661.692L299.448 661.214L277.282 673.074L277.989 673.564Z" fill="#F1F1F1"/>
<path d="M253.907 686.476L276.051 674.605L275.344 674.109L253.178 685.964L253.907 686.476Z" fill="#F1F1F1"/>
<path d="M229.825 699.394L251.969 687.517L251.24 687.005L229.074 698.865L229.825 699.394Z" fill="#F1F1F1"/>
<path d="M785.024 428.159L806.517 416.627L806.361 416.521L784.846 428.036L785.024 428.159Z" fill="#F1F1F1"/>
<path d="M760.948 441.076L782.44 429.545L782.262 429.417L760.747 440.932L760.948 441.076Z" fill="#F1F1F1"/>
<path d="M736.872 453.994L758.365 442.463L758.158 442.318L736.649 453.833L736.872 453.994Z" fill="#F1F1F1"/>
<path d="M712.551 466.734L712.801 466.912L734.288 455.381L734.06 455.219L712.551 466.734Z" fill="#F1F1F1"/>
<path d="M688.447 479.635L688.725 479.83L710.218 468.298L709.962 468.12L688.447 479.635Z" fill="#F1F1F1"/>
<path d="M685.863 481.021L664.349 492.536L664.649 492.748L686.142 481.211L685.863 481.021Z" fill="#F1F1F1"/>
<path d="M661.765 493.922L640.25 505.437L640.573 505.665L662.065 494.128L661.765 493.922Z" fill="#F1F1F1"/>
<path d="M637.666 506.818L616.151 518.338L616.497 518.583L637.989 507.052L637.666 506.818Z" fill="#F1F1F1"/>
<path d="M613.568 519.719L592.053 531.239L592.426 531.495L613.919 519.964L613.568 519.719Z" fill="#F1F1F1"/>
<path d="M589.47 532.62L567.955 544.14L568.35 544.413L589.843 532.882L589.47 532.62Z" fill="#F1F1F1"/>
<path d="M565.366 545.521L543.857 557.042L544.274 557.331L565.767 545.8L565.366 545.521Z" fill="#F1F1F1"/>
<path d="M541.267 558.422L519.753 569.937L520.198 570.249L541.691 558.718L541.267 558.422Z" fill="#F1F1F1"/>
<path d="M496.127 583.167L517.614 571.635L517.169 571.324L495.654 582.838L496.127 583.167Z" fill="#F1F1F1"/>
<path d="M472.051 596.085L493.544 584.553L493.071 584.219L471.556 595.739L472.051 596.085Z" fill="#F1F1F1"/>
<path d="M447.975 609.002L469.468 597.471L468.972 597.12L447.457 608.64L447.975 609.002Z" fill="#F1F1F1"/>
<path d="M423.899 621.92L445.391 610.389L444.874 610.021L423.359 621.542L423.899 621.92Z" fill="#F1F1F1"/>
<path d="M420.775 622.922L399.26 634.443L399.823 634.838L421.316 623.307L420.775 622.922Z" fill="#F1F1F1"/>
<path d="M396.677 635.823L375.162 647.338L375.752 647.756L397.245 636.224L396.677 635.823Z" fill="#F1F1F1"/>
<path d="M372.578 648.725L351.058 660.239L351.676 660.674L373.169 649.142L372.578 648.725Z" fill="#F1F1F1"/>
<path d="M348.474 661.626L326.965 673.14L327.6 673.591L349.093 662.054L348.474 661.626Z" fill="#F1F1F1"/>
<path d="M324.376 674.527L302.861 686.041L303.524 686.504L325.016 674.972L324.376 674.527Z" fill="#F1F1F1"/>
<path d="M300.278 687.422L278.763 698.943L279.453 699.421L300.94 687.896L300.278 687.422Z" fill="#F1F1F1"/>
<path d="M786.372 453.938L807.218 442.747L807.068 442.641L786.205 453.816L786.372 453.938Z" fill="#F1F1F1"/>
<path d="M762.306 466.856L783.148 455.67L782.97 455.548L762.106 466.723L762.306 466.856Z" fill="#F1F1F1"/>
<path d="M738.236 479.78L759.077 468.594L758.877 468.454L738.013 479.629L738.236 479.78Z" fill="#F1F1F1"/>
<path d="M714.165 492.703L735.006 481.511L734.784 481.355L713.92 492.53L714.165 492.703Z" fill="#F1F1F1"/>
<path d="M690.095 505.621L710.936 494.435L710.691 494.262L689.828 505.437L690.095 505.621Z" fill="#F1F1F1"/>
<path d="M686.598 507.163L665.735 518.338L666.024 518.544L686.865 507.358L686.598 507.163Z" fill="#F1F1F1"/>
<path d="M662.505 520.07L641.642 531.245L641.96 531.462L662.8 520.276L662.505 520.07Z" fill="#F1F1F1"/>
<path d="M638.412 532.977L617.549 544.152L617.889 544.385L638.73 533.199L638.412 532.977Z" fill="#F1F1F1"/>
<path d="M614.32 545.878L593.456 557.053L593.818 557.309L614.659 546.117L614.32 545.878Z" fill="#F1F1F1"/>
<path d="M590.227 558.784L569.363 569.959L569.748 570.227L590.589 559.04L590.227 558.784Z" fill="#F1F1F1"/>
<path d="M566.134 571.691L545.271 582.86L545.677 583.15L566.518 571.958L566.134 571.691Z" fill="#F1F1F1"/>
<path d="M542.041 584.592L521.178 595.767L521.612 596.068L542.453 584.882L542.041 584.592Z" fill="#F1F1F1"/>
<path d="M517.943 597.499L497.085 608.674L497.542 608.991L518.383 597.805L517.943 597.499Z" fill="#F1F1F1"/>
<path d="M493.85 610.4L472.992 621.575L473.471 621.915L494.312 610.723L493.85 610.4Z" fill="#F1F1F1"/>
<path d="M469.757 623.307L448.9 634.482L449.401 634.832L470.242 623.646L469.757 623.307Z" fill="#F1F1F1"/>
<path d="M445.67 636.213L424.807 647.388L425.33 647.756L446.171 636.564L445.67 636.213Z" fill="#F1F1F1"/>
<path d="M421.572 649.114L400.708 660.289L401.259 660.674L422.106 649.487L421.572 649.114Z" fill="#F1F1F1"/>
<path d="M397.479 662.021L376.615 673.196L377.189 673.597L398.035 662.411L397.479 662.021Z" fill="#F1F1F1"/>
<path d="M373.386 674.922L352.522 686.097L353.124 686.52L373.965 675.329L373.386 674.922Z" fill="#F1F1F1"/>
<path d="M349.293 687.829L328.43 699.004L329.053 699.438L349.894 688.252L349.293 687.829Z" fill="#F1F1F1"/>
<path d="M787.725 479.718L807.92 468.872L807.77 468.772L787.557 479.602L787.725 479.718Z" fill="#F1F1F1"/>
<path d="M763.66 492.642L783.855 481.801L783.682 481.678L763.47 492.508L763.66 492.642Z" fill="#F1F1F1"/>
<path d="M739.595 505.565L759.79 494.719L759.595 494.585L739.383 505.42L739.595 505.565Z" fill="#F1F1F1"/>
<path d="M715.53 518.489L735.725 507.648L735.508 507.497L715.296 518.327L715.53 518.489Z" fill="#F1F1F1"/>
<path d="M691.47 531.417L711.66 520.571L711.42 520.404L691.208 531.239L691.47 531.417Z" fill="#F1F1F1"/>
<path d="M687.333 533.316L667.121 544.14L667.405 544.341L687.595 533.494L687.333 533.316Z" fill="#F1F1F1"/>
<path d="M663.246 546.217L643.034 557.053L643.34 557.264L663.53 546.423L663.246 546.217Z" fill="#F1F1F1"/>
<path d="M639.158 559.13L618.947 569.959L619.275 570.193L639.465 559.347L639.158 559.13Z" fill="#F1F1F1"/>
<path d="M615.071 572.036L594.859 582.872L595.21 583.117L615.405 572.27L615.071 572.036Z" fill="#F1F1F1"/>
<path d="M590.984 584.948L570.772 595.778L571.145 596.04L591.34 585.194L590.984 584.948Z" fill="#F1F1F1"/>
<path d="M566.897 597.855L546.685 608.685L547.086 608.963L567.275 598.122L566.897 597.855Z" fill="#F1F1F1"/>
<path d="M542.81 610.762L522.598 621.597L523.021 621.892L543.211 611.046L542.81 610.762Z" fill="#F1F1F1"/>
<path d="M518.722 623.674L498.51 634.504L498.956 634.816L519.145 623.969L518.722 623.674Z" fill="#F1F1F1"/>
<path d="M494.635 636.581L474.423 647.416L474.891 647.739L495.081 636.898L494.635 636.581Z" fill="#F1F1F1"/>
<path d="M470.548 649.493L450.336 660.323L450.826 660.668L471.015 649.821L470.548 649.493Z" fill="#F1F1F1"/>
<path d="M446.46 662.4L426.249 673.229L426.761 673.586L446.956 662.745L446.46 662.4Z" fill="#F1F1F1"/>
<path d="M422.373 675.306L402.161 686.136L402.696 686.515L422.891 675.668L422.373 675.306Z" fill="#F1F1F1"/>
<path d="M398.286 688.219L378.074 699.048L378.637 699.438L398.826 688.592L398.286 688.219Z" fill="#F1F1F1"/>
<path d="M789.078 505.498L808.616 494.997L808.477 494.891L788.916 505.381L789.078 505.498Z" fill="#F1F1F1"/>
<path d="M765.018 518.422L784.562 507.926L784.395 507.809L764.834 518.294L765.018 518.422Z" fill="#F1F1F1"/>
<path d="M740.959 531.351L760.497 520.855L760.313 520.721L740.753 531.212L740.959 531.351Z" fill="#F1F1F1"/>
<path d="M716.899 544.28L736.443 533.778L736.232 533.634L716.671 544.118L716.899 544.28Z" fill="#F1F1F1"/>
<path d="M692.84 557.209L712.384 546.707L712.15 546.546L692.589 557.036L692.84 557.209Z" fill="#F1F1F1"/>
<path d="M688.068 559.458L668.507 569.948L668.78 570.138L688.324 559.636L688.068 559.458Z" fill="#F1F1F1"/>
<path d="M663.987 572.37L644.426 582.86L644.721 583.066L664.265 572.565L663.987 572.37Z" fill="#F1F1F1"/>
<path d="M639.905 585.283L620.344 595.773L620.662 595.995L640.205 585.494L639.905 585.283Z" fill="#F1F1F1"/>
<path d="M615.823 598.2L596.263 608.685L596.602 608.924L616.146 598.423L615.823 598.2Z" fill="#F1F1F1"/>
<path d="M591.741 611.107L572.181 621.597L572.548 621.853L592.086 611.352L591.741 611.107Z" fill="#F1F1F1"/>
<path d="M567.66 624.025L548.099 634.509L548.489 634.782L568.027 624.281L567.66 624.025Z" fill="#F1F1F1"/>
<path d="M543.578 636.937L524.017 647.427L524.43 647.711L543.968 637.21L543.578 636.937Z" fill="#F1F1F1"/>
<path d="M519.496 649.849L499.936 660.334L500.37 660.64L519.914 650.139L519.496 649.849Z" fill="#F1F1F1"/>
<path d="M495.42 662.762L475.854 673.252L476.311 673.569L495.855 663.068L495.42 662.762Z" fill="#F1F1F1"/>
<path d="M471.338 675.674L451.772 686.164L452.251 686.498L471.795 675.997L471.338 675.674Z" fill="#F1F1F1"/>
<path d="M447.251 688.586L427.696 699.076L428.192 699.427L447.736 688.92L447.251 688.586Z" fill="#F1F1F1"/>
<path d="M790.425 531.278L809.317 521.117L809.178 521.022L790.269 531.167L790.425 531.278Z" fill="#F1F1F1"/>
<path d="M766.371 544.207L785.263 534.051L785.102 533.934L766.193 544.079L766.371 544.207Z" fill="#F1F1F1"/>
<path d="M742.317 557.142L761.21 546.98L761.032 546.852L742.117 556.997L742.317 557.142Z" fill="#F1F1F1"/>
<path d="M718.269 570.071L737.156 559.915L736.955 559.77L718.046 569.915L718.269 570.071Z" fill="#F1F1F1"/>
<path d="M694.21 583.005L713.107 572.849L712.879 572.688L693.97 582.833L694.21 583.005Z" fill="#F1F1F1"/>
<path d="M669.894 595.75L670.156 595.934L689.048 585.778L688.803 585.606L669.894 595.75Z" fill="#F1F1F1"/>
<path d="M645.818 608.668L646.108 608.869L665 598.713L664.727 598.523L645.818 608.668Z" fill="#F1F1F1"/>
<path d="M640.651 611.441L621.742 621.586L622.048 621.798L640.946 611.642L640.651 611.441Z" fill="#F1F1F1"/>
<path d="M616.575 624.353L597.666 634.504L598 634.732L616.892 624.576L616.575 624.353Z" fill="#F1F1F1"/>
<path d="M592.499 637.271L573.59 647.416L573.946 647.667L592.838 637.505L592.499 637.271Z" fill="#F1F1F1"/>
<path d="M568.422 650.189L549.513 660.334L549.892 660.596L568.784 650.44L568.422 650.189Z" fill="#F1F1F1"/>
<path d="M544.346 663.107L525.437 673.252L525.838 673.53L544.731 663.374L544.346 663.107Z" fill="#F1F1F1"/>
<path d="M520.276 676.025L501.367 686.17L501.784 686.465L520.677 676.303L520.276 676.025Z" fill="#F1F1F1"/>
<path d="M496.2 688.942L477.291 699.087L477.731 699.394L496.623 689.238L496.2 688.942Z" fill="#F1F1F1"/>
<path d="M767.73 569.993L785.971 560.176L785.815 560.071L767.557 569.87L767.73 569.993Z" fill="#F1F1F1"/>
<path d="M743.682 582.927L761.922 573.111L761.744 572.988L743.487 582.794L743.682 582.927Z" fill="#F1F1F1"/>
<path d="M719.633 595.862L737.874 586.045L737.679 585.912L719.416 595.711L719.633 595.862Z" fill="#F1F1F1"/>
<path d="M695.585 608.796L713.826 598.985L713.609 598.83L695.346 608.635L695.585 608.796Z" fill="#F1F1F1"/>
<path d="M671.537 621.731L689.778 611.92L689.538 611.753L671.275 621.553L671.537 621.731Z" fill="#F1F1F1"/>
<path d="M647.488 634.671L665.729 624.855L665.467 624.671L647.21 634.476L647.488 634.671Z" fill="#F1F1F1"/>
<path d="M641.397 637.594L623.139 647.394L623.44 647.605L641.681 637.795L641.397 637.594Z" fill="#F1F1F1"/>
<path d="M617.326 650.512L599.069 660.317L599.392 660.54L617.633 650.729L617.326 650.512Z" fill="#F1F1F1"/>
<path d="M593.261 663.435L574.998 673.241L575.343 673.474L593.584 663.664L593.261 663.435Z" fill="#F1F1F1"/>
<path d="M569.191 676.359L550.928 686.158L551.295 686.415L569.536 676.598L569.191 676.359Z" fill="#F1F1F1"/>
<path d="M545.12 689.276L526.863 699.082L527.247 699.349L545.488 689.538L545.12 689.276Z" fill="#F1F1F1"/>
<path d="M769.083 595.773L786.678 586.302L786.527 586.196L768.916 595.656L769.083 595.773Z" fill="#F1F1F1"/>
<path d="M745.04 608.713L762.635 599.242L762.463 599.125L744.851 608.579L745.04 608.713Z" fill="#F1F1F1"/>
<path d="M720.997 621.653L738.592 612.182L738.397 612.048L720.791 621.503L720.997 621.653Z" fill="#F1F1F1"/>
<path d="M696.955 634.593L714.55 625.122L714.333 624.971L696.726 634.431L696.955 634.593Z" fill="#F1F1F1"/>
<path d="M672.912 647.533L690.507 638.062L690.273 637.9L672.661 647.355L672.912 647.533Z" fill="#F1F1F1"/>
<path d="M648.869 660.468L666.464 651.002L666.208 650.824L648.597 660.278L648.869 660.468Z" fill="#F1F1F1"/>
<path d="M642.143 663.747L624.537 673.207L624.827 673.408L642.422 663.942L642.143 663.747Z" fill="#F1F1F1"/>
<path d="M618.084 676.676L600.472 686.131L600.784 686.348L618.379 676.882L618.084 676.676Z" fill="#F1F1F1"/>
<path d="M594.019 689.599L576.407 699.06L576.741 699.288L594.336 689.822L594.019 689.599Z" fill="#F1F1F1"/>
<path d="M770.436 621.553L787.385 612.432L787.24 612.326L770.28 621.441L770.436 621.553Z" fill="#F1F1F1"/>
<path d="M746.399 634.498L763.348 625.372L763.181 625.255L746.221 634.37L746.399 634.498Z" fill="#F1F1F1"/>
<path d="M722.362 647.438L739.311 638.318L739.121 638.184L722.161 647.299L722.362 647.438Z" fill="#F1F1F1"/>
<path d="M698.325 660.384L715.274 651.258L715.062 651.113L698.102 660.228L698.325 660.384Z" fill="#F1F1F1"/>
<path d="M674.287 673.324L691.237 664.204L691.008 664.042L674.048 673.157L674.287 673.324Z" fill="#F1F1F1"/>
<path d="M650.25 686.27L667.194 677.144L666.949 676.971L649.988 686.086L650.25 686.27Z" fill="#F1F1F1"/>
<path d="M642.889 689.9L625.929 699.015L626.213 699.215L643.157 690.089L642.889 689.9Z" fill="#F1F1F1"/>
<path d="M771.794 647.338L788.092 638.557L787.947 638.457L771.639 647.227L771.794 647.338Z" fill="#F1F1F1"/>
<path d="M747.763 660.284L764.061 651.503L763.893 651.392L747.585 660.161L747.763 660.284Z" fill="#F1F1F1"/>
<path d="M723.731 673.229L740.029 664.449L739.845 664.321L723.531 673.096L723.731 673.229Z" fill="#F1F1F1"/>
<path d="M699.7 686.175L715.997 677.394L715.792 677.255L699.483 686.025L699.7 686.175Z" fill="#F1F1F1"/>
<path d="M675.662 699.126L691.96 690.346L691.737 690.19L675.429 698.959L675.662 699.126Z" fill="#F1F1F1"/>
<path d="M773.148 673.118L788.799 664.683L788.66 664.588L772.997 673.012L773.148 673.118Z" fill="#F1F1F1"/>
<path d="M749.121 686.069L764.773 677.634L764.612 677.522L748.949 685.952L749.121 686.069Z" fill="#F1F1F1"/>
<path d="M725.096 699.021L740.742 690.585L740.569 690.462L724.906 698.887L725.096 699.021Z" fill="#F1F1F1"/>
<path d="M774.501 698.898L789.506 690.808L789.367 690.713L774.356 698.798L774.501 698.898Z" fill="#F1F1F1"/>
</g>
</svg>
